<?xml version="1.0" encoding="iso-8859-1"?>
<!-- Generator: Adobe Illustrator 19.0.0, SVG Export Plug-In . SVG Version: 6.00 Build 0)  -->
<svg version="1.1" id="Layer_1" xmlns="http://www.w3.org/2000/svg" xmlns:xlink="http://www.w3.org/1999/xlink" x="0px" y="0px"
	 viewBox="0 0 512 512" style="enable-background:new 0 0 512 512;" xml:space="preserve">
<g>
	<path style="fill:#2D527C;" d="M341.711,295.634c-8.737,0-15.819-7.084-15.819-15.819v-23.203
		c0-38.539-31.354-69.893-69.893-69.893s-69.893,31.353-69.893,69.893v7.384h64.741c8.737,0,15.819,7.084,15.819,15.819
		s-7.082,15.819-15.819,15.819h-80.558c-8.737,0-15.819-7.084-15.819-15.819v-23.203c0-55.984,45.545-101.531,101.531-101.531
		s101.531,45.547,101.531,101.531v23.203C357.53,288.552,350.448,295.634,341.711,295.634z"/>
	<path style="fill:#2D527C;" d="M255.999,186.72c-49.052,0-88.958-39.908-88.958-88.958s39.907-88.958,88.958-88.958
		s88.958,39.907,88.958,88.958c0,18.962-5.888,37.065-17.026,52.347c-5.144,7.06-15.039,8.612-22.1,3.467
		c-7.06-5.146-8.613-15.04-3.467-22.102c7.167-9.835,10.956-21.493,10.956-33.714c0-31.606-25.713-57.321-57.321-57.321
		s-57.321,25.715-57.321,57.321s25.713,57.321,57.321,57.321c8.737,0,15.819,7.084,15.819,15.819S264.736,186.72,255.999,186.72z"/>
</g>
<path style="fill:#CEE8FA;" d="M464.148,487.377H47.852c-17.692,0-32.033-14.341-32.033-32.033v-77.248
	c0-17.692,14.341-32.033,32.033-32.033h416.297c17.692,0,32.033,14.341,32.033,32.033v77.248
	C496.181,473.036,481.84,487.377,464.148,487.377z"/>
<path style="fill:#2D527C;" d="M464.148,503.196H47.852C21.466,503.196,0,481.73,0,455.344v-77.248
	c0-26.386,21.466-47.852,47.852-47.852h416.297c26.386,0,47.852,21.466,47.852,47.852v77.248
	C512,481.73,490.534,503.196,464.148,503.196z M47.852,361.883c-8.941,0-16.214,7.273-16.214,16.214v77.248
	c0,8.941,7.273,16.214,16.214,16.214h416.297c8.941,0,16.214-7.273,16.214-16.214v-77.248c0-8.941-7.273-16.214-16.214-16.214
	L47.852,361.883L47.852,361.883z"/>
<path id="SVGCleanerId_0" style="fill:#2D527C;" d="M116.114,451.273c-4.05,0-8.096-1.545-11.185-4.633
	c-6.177-6.177-6.177-16.194,0-22.372l34.305-34.303c6.177-6.176,16.192-6.174,22.371,0c6.177,6.177,6.177,16.194,0,22.372
	L127.3,446.639C124.21,449.727,120.162,451.273,116.114,451.273z"/>
<g>
	<path id="SVGCleanerId_0_1_" style="fill:#2D527C;" d="M116.114,451.273c-4.05,0-8.096-1.545-11.185-4.633
		c-6.177-6.177-6.177-16.194,0-22.372l34.305-34.303c6.177-6.176,16.192-6.174,22.371,0c6.177,6.177,6.177,16.194,0,22.372
		L127.3,446.639C124.21,449.727,120.162,451.273,116.114,451.273z"/>
</g>
<path id="SVGCleanerId_1" style="fill:#2D527C;" d="M150.417,451.273c-4.048,0-8.096-1.545-11.185-4.633l-34.305-34.303
	c-6.177-6.177-6.179-16.194,0-22.372c6.177-6.176,16.194-6.176,22.371,0l34.304,34.303c6.177,6.177,6.179,16.194,0,22.372
	C158.515,449.727,154.465,451.273,150.417,451.273z"/>
<g>
	<path id="SVGCleanerId_1_1_" style="fill:#2D527C;" d="M150.417,451.273c-4.048,0-8.096-1.545-11.185-4.633l-34.305-34.303
		c-6.177-6.177-6.179-16.194,0-22.372c6.177-6.176,16.194-6.176,22.371,0l34.304,34.303c6.177,6.177,6.179,16.194,0,22.372
		C158.515,449.727,154.465,451.273,150.417,451.273z"/>
</g>
<path id="SVGCleanerId_2" style="fill:#2D527C;" d="M232.368,451.273c-4.05,0-8.096-1.545-11.185-4.633
	c-6.177-6.177-6.177-16.194,0-22.372l34.303-34.303c6.177-6.176,16.194-6.174,22.371,0c6.177,6.177,6.177,16.194,0,22.372
	l-34.303,34.303C240.464,449.727,236.416,451.273,232.368,451.273z"/>
<g>
	<path id="SVGCleanerId_2_1_" style="fill:#2D527C;" d="M232.368,451.273c-4.05,0-8.096-1.545-11.185-4.633
		c-6.177-6.177-6.177-16.194,0-22.372l34.303-34.303c6.177-6.176,16.194-6.174,22.371,0c6.177,6.177,6.177,16.194,0,22.372
		l-34.303,34.303C240.464,449.727,236.416,451.273,232.368,451.273z"/>
</g>
<path id="SVGCleanerId_3" style="fill:#2D527C;" d="M266.671,451.273c-4.048,0-8.096-1.545-11.185-4.633l-34.303-34.303
	c-6.177-6.177-6.179-16.194,0-22.372c6.177-6.176,16.194-6.176,22.371,0l34.303,34.303c6.177,6.177,6.179,16.194,0,22.372
	C274.767,449.727,270.719,451.273,266.671,451.273z"/>
<g>
	<path id="SVGCleanerId_3_1_" style="fill:#2D527C;" d="M266.671,451.273c-4.048,0-8.096-1.545-11.185-4.633l-34.303-34.303
		c-6.177-6.177-6.179-16.194,0-22.372c6.177-6.176,16.194-6.176,22.371,0l34.303,34.303c6.177,6.177,6.179,16.194,0,22.372
		C274.767,449.727,270.719,451.273,266.671,451.273z"/>
</g>
<path id="SVGCleanerId_4" style="fill:#2D527C;" d="M361.583,451.273c-4.05,0-8.096-1.545-11.185-4.633
	c-6.177-6.177-6.177-16.194,0-22.372l34.304-34.303c6.177-6.176,16.194-6.174,22.371,0c6.177,6.177,6.177,16.194,0,22.372
	l-34.305,34.303C369.679,449.727,365.631,451.273,361.583,451.273z"/>
<g>
	<path id="SVGCleanerId_4_1_" style="fill:#2D527C;" d="M361.583,451.273c-4.05,0-8.096-1.545-11.185-4.633
		c-6.177-6.177-6.177-16.194,0-22.372l34.304-34.303c6.177-6.176,16.194-6.174,22.371,0c6.177,6.177,6.177,16.194,0,22.372
		l-34.305,34.303C369.679,449.727,365.631,451.273,361.583,451.273z"/>
</g>
<path id="SVGCleanerId_5" style="fill:#2D527C;" d="M395.886,451.273c-4.048,0-8.096-1.545-11.185-4.633l-34.305-34.303
	c-6.177-6.177-6.179-16.194,0-22.372c6.177-6.176,16.194-6.176,22.371,0l34.304,34.303c6.177,6.177,6.179,16.194,0,22.372
	C403.983,449.727,399.934,451.273,395.886,451.273z"/>
<g>
	<path id="SVGCleanerId_5_1_" style="fill:#2D527C;" d="M395.886,451.273c-4.048,0-8.096-1.545-11.185-4.633l-34.305-34.303
		c-6.177-6.177-6.179-16.194,0-22.372c6.177-6.176,16.194-6.176,22.371,0l34.304,34.303c6.177,6.177,6.179,16.194,0,22.372
		C403.983,449.727,399.934,451.273,395.886,451.273z"/>
</g>
<g>
</g>
<g>
</g>
<g>
</g>
<g>
</g>
<g>
</g>
<g>
</g>
<g>
</g>
<g>
</g>
<g>
</g>
<g>
</g>
<g>
</g>
<g>
</g>
<g>
</g>
<g>
</g>
<g>
</g>
</svg>
